<svg width="232" height="40" viewBox="0 0 232 40" fill="none" xmlns="http://www.w3.org/2000/svg">
<path fill-rule="evenodd" clip-rule="evenodd" d="M163.065 7.1735C159.036 7.64749 156 11.062 156 15.1187V33.5047H161.5V30.5047H168V33.5047H173V15.0011C173 10.2123 168.821 6.49633 164.065 7.05585L163.065 7.1735ZM168 26.0047L168 19.5047C168 19.1542 168.006 18.7966 168.012 18.4379C168.041 16.792 168.07 15.1223 167.5 14.0047C166.805 12.6436 165.454 12.5047 164.5 12.5047C163.458 12.5047 162.141 13.0596 161.5 14.5047C160.993 15.6484 160.996 17.4316 160.999 19.1036C161 19.2382 161 19.372 161 19.5047L161 26.0047H164.5H168Z" fill="#944EFF"/>
<path fill-rule="evenodd" clip-rule="evenodd" d="M201 7C197.686 7 195 9.68629 195 13V28C195 31.3137 197.686 34 201 34H204.61C207.88 34 210.549 31.3809 210.609 28.1111L210.887 13.1111C210.949 9.75449 208.245 7 204.888 7H201ZM206.12 26.7308V20.8039C206.12 19.6681 206.164 18.6615 206.203 17.7745C206.269 16.2831 206.32 15.1299 206.12 14.2692C205.711 12.5155 204.522 11.9765 203.12 12.2664C201.463 11.9809 200.389 12.8829 200.12 14.2692C199.951 15.1402 199.994 16.3047 200.05 17.7985C200.082 18.6825 200.12 19.6819 200.12 20.8039V26.7308C200.62 28.2885 201.907 28.8077 203.12 28.8077C204.605 28.8077 205.732 28.5735 206.12 26.7308Z" fill="#944EFF"/>
<rect x="21" y="15" width="3" height="4" fill="white"/>
<rect x="21" y="22" width="3" height="4" fill="white"/>
<path d="M20.5 8.5H9.5V15.5H11.0858C11.9913 15.5 12.8597 15.8597 13.5 16.5L13.9393 16.9393C14.6185 17.6185 15 18.5396 15 19.5V20.1492C15 21.319 14.4682 22.4254 13.5548 23.1562C12.872 23.7024 12.0236 24 11.1492 24H9.5V31.5H20.5V8.5Z" fill="white"/>
<path d="M24.5 26V31.5H46V24H45.047C44.0565 24 43.1065 23.6065 42.4061 22.9061C41.8188 22.3188 41.4441 21.5526 41.3411 20.7285L41.3275 20.62C41.1284 19.0274 41.8878 17.4673 43.2641 16.6415L43.5 16.5H46V8.5H24.5V26Z" fill="white"/>
<path d="M20.5 8.5H9.5V15.5H11.0858C11.9913 15.5 12.8597 15.8597 13.5 16.5L13.9393 16.9393C14.6185 17.6185 15 18.5396 15 19.5V20.1492C15 21.319 14.4682 22.4254 13.5548 23.1562C12.872 23.7024 12.0236 24 11.1492 24H9.5V31.5H20.5V8.5Z" stroke="white"/>
<path d="M24.5 26V31.5H46V24H45.047C44.0565 24 43.1065 23.6065 42.4061 22.9061C41.8188 22.3188 41.4441 21.5526 41.3411 20.7285L41.3275 20.62C41.1284 19.0274 41.8878 17.4673 43.2641 16.6415L43.5 16.5H46V8.5H24.5V26Z" stroke="white"/>
<rect x="1.5" y="1.5" width="53" height="37" stroke="white" stroke-width="3"/>
<path d="M129 11.68V33H133.5V12.72L135 11.68H137.5L138.5 13.24V33H143.5V13.24L144 11.68H146.5L148 12.72V33H153V14.28L152.5 11.16L150.5 8.04L147.5 7H144L142 8.04H139.5L136.5 7H133.5L130.5 8.04L129 11.68Z" fill="#944EFF"/>
<path d="M109.5 7.5H126V12H114.5V17.5H122V23H114.5V28H126V32.5H109.5V7.5Z" fill="#944EFF" stroke="#944EFF"/>
<path d="M231 8H213V33H218.294V22.6226H226.235V17.9057H218.294V13.1887H231V8Z" fill="#944EFF" stroke="#944EFF"/>
<path d="M79.5 14.5H75C75 13.04 73.9821 11.7536 72.5246 11.6689C71.1493 11.589 69.5981 11.7025 69 12.5C68.738 12.8493 68.5 13.5 68.5 13.5V26.2929C68.5 26.7456 68.6799 27.1799 69 27.5C69.3201 27.8201 69.7544 28 70.2071 28H72.9973C73.6118 28 74.1736 27.6528 74.4484 27.1031C74.4828 27.0345 74.5122 26.9634 74.5365 26.8906L75 25.5H80V26.8197C80 27.5959 79.8193 28.3615 79.4721 29.0557L79.2016 29.5967C79.0675 29.865 78.9095 30.1207 78.7295 30.3607L78.0877 31.2165C77.6996 31.7339 77.2148 32.1711 76.6601 32.5039L76.1876 32.7875C75.4105 33.2537 74.5213 33.5 73.6151 33.5H70.1155C69.7067 33.5 69.2995 33.4499 68.9029 33.3507L68.3402 33.2101C67.7842 33.0711 67.2562 32.8375 66.7794 32.5196L65.6048 31.7365C64.8808 31.2539 64.2953 30.5906 63.9062 29.8124L63.5279 29.0557C63.1807 28.3615 63 27.5959 63 26.8197V13.4629C63 12.8268 63.1214 12.1966 63.3576 11.606L63.6188 10.9529C63.8703 10.3242 64.2469 9.75311 64.7257 9.27431L65.5207 8.47929C66.1615 7.83849 66.9644 7.3839 67.8436 7.16411L67.9029 7.14929C68.2995 7.05014 68.7067 7 69.1155 7H73.0049C73.3342 7 73.6626 7.03252 73.9855 7.0971L74.8879 7.27758C75.62 7.424 76.31 7.73252 76.9073 8.18048L77.0557 8.2918C77.6767 8.75753 78.1807 9.36145 78.5279 10.0557L78.9721 10.9443C79.3193 11.6385 79.5 12.4041 79.5 13.1803V14.5Z" fill="#944EFF"/>
<path d="M87 7H82V32.5H87V7Z" fill="#944EFF"/>
<path d="M89.5 7V32.5H94.5V20.5L101.5 25.5V32.5H106.5V7H101.5V19L94.5 14.5V7H89.5Z" fill="#944EFF"/>
<path d="M191.5 15H187L186.904 14.7111C186.364 13.092 184.849 12 183.142 12H182.561C181.882 12 181.23 12.2698 180.75 12.75C180.27 13.2302 180 13.8815 180 14.5607V15.3742C180 16.0951 180.286 16.7863 180.796 17.296C181.251 17.7506 181.852 18.0293 182.492 18.0827L186.066 18.3805C187.003 18.4586 187.899 18.7992 188.651 19.3632L189.769 20.2021C190.874 21.0303 191.586 22.2781 191.739 23.6499L191.891 25.0212C191.963 25.6675 191.908 26.3217 191.729 26.9469L191.356 28.2542C191.123 29.0712 190.685 29.8153 190.084 30.4161L188.464 32.0355C187.527 32.9732 186.255 33.5 184.929 33.5H181.828C180.958 33.5 180.103 33.2729 179.347 32.8412L177.898 32.0134C177.306 31.6747 176.789 31.2183 176.379 30.6722L176.106 30.3078C175.706 29.7746 175.417 29.167 175.255 28.5204L175 27.5V25.5H180V26.3486C180 26.7733 180.126 27.1886 180.361 27.542C180.76 28.1405 181.432 28.5 182.151 28.5H183.697C184.823 28.5 185.875 27.9371 186.5 27L186.684 26.4487C186.889 25.8329 186.889 25.1671 186.684 24.5513C186.275 23.3263 185.129 22.5 183.838 22.5H181.68C180.904 22.5 180.139 22.3193 179.444 21.9721L178.226 21.3629C177.745 21.1225 177.306 20.8063 176.926 20.4263L176.464 19.9645C175.527 19.0268 175 17.755 175 16.4289V14.5263C175 13.8492 175.138 13.1791 175.404 12.5567L176.042 11.0695C176.343 10.3659 176.802 9.74094 177.383 9.24278L178.596 8.20372C179.502 7.42696 180.656 7 181.85 7H184.689C185.226 7 185.76 7.08664 186.27 7.25658L187.186 7.56205C188.046 7.84862 188.812 8.36346 189.401 9.05151L190.296 10.0957C191.073 11.0019 191.5 12.1561 191.5 13.3496V15Z" fill="#944EFF"/>
</svg>
